<svg width="15" height="10" viewBox="0 0 15 10" fill="none" xmlns="http://www.w3.org/2000/svg">
<path d="M14.1987 0.289081C13.9563 0.0781251 13.6445 -0.0234391 13.3312 0.00651426C13.018 0.0364676 12.7287 0.195511 12.5263 0.448997L7.50009 6.79702L2.4738 0.449102C2.27202 0.194621 1.98248 0.0349352 1.66886 0.00517355C1.35523 -0.0245881 1.04323 0.0780122 0.80147 0.290404C0.559713 0.502795 0.408011 0.80758 0.379738 1.13771C0.351464 1.46784 0.448935 1.79627 0.650707 2.05075L6.58854 9.55108C6.69993 9.69169 6.83932 9.80481 6.99684 9.88244C7.15436 9.96007 7.32616 10.0003 7.50009 10.0003C7.67402 10.0003 7.84582 9.96007 8.00334 9.88244C8.16086 9.80481 8.30024 9.69169 8.41163 9.55108L14.3495 2.05064C14.5512 1.7959 14.6486 1.46731 14.6203 1.13703C14.5921 0.806749 14.4404 0.501775 14.1987 0.289081Z" fill="black"/>
</svg>
