<svg width="31" height="31" viewBox="0 0 31 31" fill="none" xmlns="http://www.w3.org/2000/svg">
<path d="M24.8 8.68C24.8 8.68 9.05384 8.68 6.19998 8.68C4.29286 8.68 3.09998 10.54 3.09998 11.78V25.0381C3.09998 26.6191 4.3809 27.9 5.9619 27.9H25.0381C26.6184 27.9 27.9 26.6191 27.9 25.0381V11.6845C27.9 10.1054 26.3804 8.68 24.8 8.68Z" stroke="black" stroke-width="2" stroke-miterlimit="10" stroke-linecap="round" stroke-linejoin="round"/>
<path d="M22.94 6.82V4.74796C22.94 2.68274 22.4942 2.08692 19.9317 2.76272C18.0494 3.25934 7.03512 6.31284 7.03512 6.31284C3.6431 7.59128 3.1254 8.67938 3.1254 11.1588L3.09998 12.6809" stroke="black" stroke-width="2" stroke-miterlimit="10" stroke-linejoin="round"/>
<path d="M23.8712 19.84C23.015 19.84 22.3199 19.1468 22.3199 18.2906C22.3199 17.4344 23.015 16.74 23.8712 16.74C24.7249 16.74 25.4199 17.4344 25.4199 18.2906C25.4199 19.1468 24.7249 19.84 23.8712 19.84Z" fill="black"/>
</svg>
